# xmcd
#
# Track frame offsets:
#	150
#	14319
#	25177
#	40320
#	54811
#	66026
#	79866
#	89774
#	103552
#	115320
#	130064
#	139872
#	152294
#	163585
#	175995
#	187923
#	198429
#	210718
#	222640
#	234562
#
# Disc length: 3275 seconds
#
# Revision: 1
# Processed by: cddbd v1.5.2PL0 Copyright (c) Steve Scherf et al.
# Submitted via: EasyCDDAExtractor 10.0.2.1
#
DISCID=110cc914
DTITLE=George Jones - The Very Best Of Love
DYEAR=2003
DGENRE=Country
TTITLE0=The Grand Tour
TTITLE1=Love Lives Again
TTITLE2=You Always Look Your Best (Here In My Arms)
TTITLE3=I'll Just Take It Out In Love
TTITLE4=She's My Rock
TTITLE5=I'll Take You to My World
TTITLE6=Kiss an Angel Good Morning
TTITLE7=These Days (I Barely Get By)
TTITLE8=Baby, There's Nothing Like You
TTITLE9=He Stopped Loving Her Today
TTITLE10=The Race Is On
TTITLE11=You Comb Her Hair
TTITLE12=Not Exactly What I Had In Mind
TTITLE13=A Girl I Used To Know
TTITLE14=She Thinks I Still Care
TTITLE15=Your Heart Turned Left (And I Was On The Right)
TTITLE16=We Must Have Been Out Of Our Minds
TTITLE17=Where Does A Little Tear Come From
TTITLE18=Least Of All
TTITLE19=My Tears Are Overdue
EXTD=
EXTT0=
EXTT1=
EXTT2=
EXTT3=
EXTT4=
EXTT5=
EXTT6=
EXTT7=
EXTT8=
EXTT9=
EXTT10=
EXTT11=
EXTT12=
EXTT13=
EXTT14=
EXTT15=
EXTT16=
EXTT17=
EXTT18=
EXTT19=
PLAYORDER=
